<?xml version="1.0" standalone="no"?>
<!DOCTYPE svg PUBLIC "-//W3C//DTD SVG 20010904//EN"
 "http://www.w3.org/TR/2001/REC-SVG-20010904/DTD/svg10.dtd">
<svg version="1.0" xmlns="http://www.w3.org/2000/svg"
 width="183.000000pt" height="166.000000pt" viewBox="0 0 183.000000 166.000000"
 preserveAspectRatio="xMidYMid meet">

<g transform="translate(0.000000,166.000000) scale(0.100000,-0.100000)"
fill="#000000" stroke="none">
<path d="M0 830 l0 -830 40 0 40 0 0 830 0 830 -40 0 -40 0 0 -830z"/>
<path d="M1740 830 l0 -830 45 0 45 0 0 830 0 830 -45 0 -45 0 0 -830z"/>
<path d="M700 1335 c0 -8 5 -15 10 -15 6 0 10 7 10 15 0 8 -4 15 -10 15 -5 0
-10 -7 -10 -15z"/>
<path d="M1102 1339 c2 -6 8 -10 13 -10 5 0 11 4 13 10 2 6 -4 11 -13 11 -9 0
-15 -5 -13 -11z"/>
<path d="M801 1304 c-169 -45 -333 -212 -357 -362 -5 -34 -3 -42 14 -51 18 -9
27 -6 57 20 19 17 35 37 35 45 0 26 71 133 112 169 69 58 142 88 232 93 73 4
78 3 72 -14 -9 -29 37 -48 59 -24 8 9 13 24 9 34 -14 37 46 64 65 28 12 -23
84 -52 102 -42 20 13 -5 36 -75 69 -109 51 -220 63 -325 35z m139 -35 c0 -5
-7 -9 -15 -9 -15 0 -20 12 -9 23 8 8 24 -1 24 -14z m-60 1 c0 -5 -4 -10 -10
-10 -5 0 -10 5 -10 10 0 6 5 10 10 10 6 0 10 -4 10 -10z m118 -1 c-2 -6 -8
-10 -13 -10 -5 0 -11 4 -13 10 -2 6 4 11 13 11 9 0 15 -5 13 -11z m-178 -9 c0
-5 -5 -10 -11 -10 -5 0 -7 5 -4 10 3 6 8 10 11 10 2 0 4 -4 4 -10z m-50 -20
c0 -5 -4 -10 -10 -10 -5 0 -10 5 -10 10 0 6 5 10 10 10 6 0 10 -4 10 -10z
m-50 -24 c0 -3 -4 -8 -10 -11 -5 -3 -10 -1 -10 4 0 6 5 11 10 11 6 0 10 -2 10
-4z m-95 -66 c3 -5 1 -10 -4 -10 -6 0 -11 5 -11 10 0 6 2 10 4 10 3 0 8 -4 11
-10z m-100 -140 c3 -5 1 -10 -4 -10 -6 0 -11 5 -11 10 0 6 2 10 4 10 3 0 8 -4
11 -10z"/>
<path d="M590 1275 c0 -9 5 -15 11 -13 6 2 11 8 11 13 0 5 -5 11 -11 13 -6 2
-11 -4 -11 -13z"/>
<path d="M1210 1275 c0 -8 5 -15 10 -15 6 0 10 7 10 15 0 8 -4 15 -10 15 -5 0
-10 -7 -10 -15z"/>
<path d="M525 1210 c-3 -5 -1 -10 4 -10 6 0 11 5 11 10 0 6 -2 10 -4 10 -3 0
-8 -4 -11 -10z"/>
<path d="M1069 1180 c-20 -16 -21 -19 -6 -20 12 0 17 -8 17 -30 0 -28 -2 -29
-20 -18 -11 7 -18 19 -15 25 10 26 -12 11 -68 -49 -33 -34 -63 -72 -68 -85
-11 -28 -40 -30 -64 -3 -13 14 -25 18 -44 14 -33 -8 -88 -59 -95 -89 -9 -35
-37 -41 -61 -11 -16 21 -26 24 -47 18 -45 -12 -115 -77 -120 -111 -4 -30 -4
-31 39 -31 42 0 43 1 43 33 0 31 14 57 32 57 4 0 8 -9 8 -20 0 -11 7 -23 16
-27 9 -3 19 -15 24 -27 7 -20 8 -20 15 7 9 34 35 36 35 2 0 -14 5 -25 10 -25
6 0 10 8 10 19 0 10 7 24 15 31 12 10 15 10 15 -4 0 -9 5 -16 10 -16 6 0 10
25 10 55 0 42 3 55 15 55 8 0 15 -5 15 -11 0 -5 5 -7 11 -4 5 4 19 -1 30 -11
18 -16 19 -16 19 4 0 15 6 22 20 22 16 0 20 -7 20 -37 l0 -36 26 24 27 24 -6
-52 c-3 -29 -2 -55 2 -57 4 -3 21 -1 37 4 23 7 19 15 -7 12 -3 -1 -9 33 -13
75 -6 73 -5 78 19 103 14 14 25 36 25 48 0 15 6 22 20 22 17 0 20 -7 20 -43 0
-31 6 -49 20 -62 17 -15 20 -31 20 -93 0 -63 2 -73 16 -68 9 3 22 6 30 6 8 0
14 4 14 9 0 5 -9 7 -20 4 -19 -5 -19 0 -17 161 1 121 5 165 14 162 11 -4 51
31 42 37 -6 4 -59 27 -63 27 -2 0 -14 -9 -27 -20z"/>
<path d="M485 1179 c-10 -15 3 -25 16 -12 7 7 7 13 1 17 -6 3 -14 1 -17 -5z"/>
<path d="M1240 1179 c-123 -49 -135 -224 -20 -281 104 -52 220 18 220 132 0
63 -27 110 -80 138 -47 24 -80 27 -120 11z m115 -73 c32 -32 40 -69 25 -107
-26 -63 -95 -78 -149 -33 -26 21 -31 33 -31 69 0 36 5 48 31 69 40 34 91 35
124 2z"/>
<path d="M1246 1068 c-23 -32 -20 -54 11 -77 40 -33 93 -7 93 44 0 51 -75 74
-104 33z m74 -17 c7 -15 6 -24 -6 -36 -19 -18 -33 -16 -48 7 -7 12 -6 21 3 32
18 22 38 20 51 -3z"/>
<path d="M860 1120 c0 -5 5 -10 10 -10 6 0 10 5 10 10 0 6 -4 10 -10 10 -5 0
-10 -4 -10 -10z"/>
<path d="M907 1110 c-12 -10 -37 -21 -55 -25 -24 -5 -32 -11 -28 -22 3 -8 6
-17 6 -19 0 -3 16 -2 36 2 32 6 93 55 94 75 0 12 -32 5 -53 -11z"/>
<path d="M417 1074 c-8 -8 1 -24 14 -24 5 0 9 7 9 15 0 15 -12 20 -23 9z"/>
<path d="M670 1030 c0 -5 5 -10 10 -10 6 0 10 5 10 10 0 6 -4 10 -10 10 -5 0
-10 -4 -10 -10z"/>
<path d="M725 1029 c-4 -6 -25 -23 -47 -39 -36 -26 -37 -29 -13 -26 24 3 85
51 85 68 0 12 -18 10 -25 -3z"/>
<path d="M397 966 c-5 -15 -6 -31 -3 -34 8 -8 18 25 14 45 -3 13 -6 10 -11
-11z"/>
<path d="M372 868 c-7 -7 -12 -24 -12 -40 0 -50 66 -62 91 -17 23 43 -44 92
-79 57z m58 -34 c0 -19 -28 -30 -42 -16 -8 8 -8 15 1 26 14 17 41 10 41 -10z"/>
<path d="M1205 860 c20 -22 39 -27 33 -8 -2 6 -15 15 -28 20 -23 9 -23 8 -5
-12z"/>
<path d="M1387 850 c-10 -27 -15 -30 -59 -30 -43 0 -69 -12 -50 -24 4 -2 45
-6 91 -7 72 -3 85 -1 97 16 18 24 18 40 -2 59 -27 27 -64 20 -77 -14z m58 -16
c0 -10 -8 -20 -17 -22 -18 -3 -26 27 -11 42 12 11 28 0 28 -20z"/>
<path d="M828 803 c7 -3 16 -2 19 1 4 3 -2 6 -13 5 -11 0 -14 -3 -6 -6z"/>
<path d="M740 775 c-10 -12 -43 -15 -181 -15 -144 0 -169 -2 -169 -15 0 -13
25 -15 163 -15 150 0 164 -2 180 -20 22 -26 52 -26 70 0 13 19 27 20 325 22
200 2 312 7 312 13 0 6 -112 11 -311 13 -256 2 -315 5 -332 17 -27 19 -41 19
-57 0z m50 -35 c0 -13 -7 -20 -20 -20 -13 0 -20 7 -20 20 0 13 7 20 20 20 13
0 20 -7 20 -20z"/>
<path d="M393 688 c3 -9 30 -13 93 -12 194 2 235 4 229 14 -10 16 -328 13
-322 -2z"/>
<path d="M825 690 c-4 -6 18 -10 59 -10 37 0 66 4 66 10 0 6 -26 10 -59 10
-33 0 -63 -4 -66 -10z"/>
<path d="M1171 686 c-18 -22 4 -58 32 -54 31 4 32 62 1 66 -11 2 -26 -4 -33
-12z m39 -15 c0 -6 -4 -13 -10 -16 -5 -3 -10 1 -10 9 0 9 5 16 10 16 6 0 10
-4 10 -9z"/>
<path d="M1330 690 c0 -5 25 -10 55 -10 30 0 55 5 55 10 0 6 -25 10 -55 10
-30 0 -55 -4 -55 -10z"/>
<path d="M982 670 c-12 -12 -22 -25 -22 -30 0 -6 -59 -10 -144 -10 -86 0 -147
-4 -151 -10 -4 -6 45 -10 140 -10 144 0 146 0 155 -24 11 -29 47 -56 75 -56
28 0 64 27 75 56 7 17 17 24 35 24 14 0 25 5 25 10 0 6 -12 10 -26 10 -16 0
-35 11 -51 30 -30 36 -78 41 -111 10z m91 -31 c16 -23 11 -58 -9 -66 -7 -2
-27 10 -44 27 -25 25 -29 35 -19 46 17 21 56 17 72 -7z"/>
<path d="M1264 679 c-10 -17 13 -36 27 -22 12 12 4 33 -11 33 -5 0 -12 -5 -16
-11z"/>
<path d="M454 626 c-21 -18 -28 -32 -28 -61 0 -29 7 -43 28 -61 31 -28 56 -30
95 -9 49 25 57 90 16 130 -31 32 -75 32 -111 1z m38 -38 c-6 -6 -16 -8 -22 -6
-9 3 -7 9 6 22 13 13 19 15 22 6 2 -6 0 -16 -6 -22z m65 -14 c-12 -13 -37 6
-37 28 l0 22 22 -21 c12 -13 19 -25 15 -29z m-12 -40 c-23 -17 -32 -10 -15 11
7 8 17 12 23 8 6 -4 3 -11 -8 -19z m-55 6 c0 -5 -4 -10 -10 -10 -5 0 -10 5
-10 10 0 6 5 10 10 10 6 0 10 -4 10 -10z"/>
<path d="M610 630 c0 -5 5 -10 10 -10 6 0 10 5 10 10 0 6 -4 10 -10 10 -5 0
-10 -4 -10 -10z"/>
<path d="M1380 605 c0 -8 7 -15 15 -15 8 0 15 7 15 15 0 8 -7 15 -15 15 -8 0
-15 -7 -15 -15z"/>
<path d="M1213 590 c-45 -27 -63 -87 -40 -135 34 -72 130 -84 181 -24 26 31
31 61 20 116 -11 56 -101 80 -161 43z m57 -28 c0 -5 -9 -17 -20 -27 -23 -20
-26 -45 -8 -63 15 -15 54 -16 63 -2 9 15 25 12 25 -5 0 -18 -31 -35 -64 -35
-29 0 -66 42 -66 74 0 26 34 66 55 66 8 0 15 -4 15 -8z m47 -12 c3 -11 9 -20
14 -20 5 0 9 -9 9 -20 0 -11 -4 -20 -10 -20 -5 0 -10 7 -10 15 0 8 -9 20 -20
27 -11 7 -20 18 -20 25 0 21 31 15 37 -7z m34 7 c-1 -12 -15 -9 -19 4 -3 6 1
10 8 8 6 -3 11 -8 11 -12z m-61 -57 c0 -21 -24 -28 -35 -10 -8 14 3 30 21 30
8 0 14 -9 14 -20z"/>
<path d="M637 594 c-14 -14 -7 -35 11 -32 9 2 17 10 17 17 0 16 -18 25 -28 15z"/>
<path d="M693 534 c-15 -24 -15 -29 -2 -53 11 -20 22 -26 49 -26 27 0 38 6 49
26 13 24 13 29 -2 53 -12 18 -26 26 -47 26 -21 0 -35 -8 -47 -26z m75 -25 c3
-17 -23 -33 -39 -23 -5 3 -9 14 -9 25 0 15 6 20 22 17 13 -2 24 -10 26 -19z"/>
<path d="M836 533 c-12 -12 -6 -33 9 -33 8 0 15 6 15 14 0 17 -14 28 -24 19z"/>
<path d="M615 511 c-8 -15 3 -31 21 -31 9 0 14 7 12 17 -4 20 -24 28 -33 14z"/>
<path d="M1025 490 c3 -5 8 -10 11 -10 2 0 4 5 4 10 0 6 -5 10 -11 10 -5 0 -7
-4 -4 -10z"/>
<path d="M880 465 c-7 -8 -28 -15 -46 -15 -19 0 -34 -4 -34 -10 0 -5 11 -10
24 -10 19 0 26 -7 31 -30 13 -61 87 -81 124 -34 12 15 21 35 21 45 0 14 7 19
25 19 14 0 25 5 25 10 0 6 -12 10 -27 10 -16 0 -37 7 -47 15 -26 19 -80 19
-96 0z m84 -34 c4 -5 4 -16 1 -24 -7 -17 -49 -11 -67 10 -10 12 -9 18 6 29 19
13 47 6 60 -15z"/>
<path d="M1080 465 c-6 -8 -9 -23 -5 -35 9 -27 51 -27 60 0 7 23 -10 50 -30
50 -7 0 -18 -7 -25 -15z m40 -19 c0 -11 -19 -15 -25 -6 -3 5 1 10 9 10 9 0 16
-2 16 -4z"/>
<path d="M655 430 c3 -5 8 -10 11 -10 2 0 4 5 4 10 0 6 -5 10 -11 10 -5 0 -7
-4 -4 -10z"/>
<path d="M596 422 c-2 -4 -1 -14 4 -22 7 -11 12 -12 21 -3 6 6 8 16 5 22 -8
13 -23 14 -30 3z"/>
<path d="M1150 410 c0 -5 5 -10 11 -10 5 0 7 5 4 10 -3 6 -8 10 -11 10 -2 0
-4 -4 -4 -10z"/>
<path d="M737 394 c-9 -10 2 -24 19 -24 8 0 14 7 14 15 0 15 -21 21 -33 9z"/>
<path d="M800 375 c0 -8 5 -15 10 -15 6 0 10 7 10 15 0 8 -4 15 -10 15 -5 0
-10 -7 -10 -15z"/>
<path d="M1037 384 c-8 -8 1 -24 14 -24 5 0 9 7 9 15 0 15 -12 20 -23 9z"/>
<path d="M1110 346 c0 -9 7 -16 16 -16 9 0 14 5 12 12 -6 18 -28 21 -28 4z"/>
<path d="M785 320 c3 -5 8 -10 11 -10 2 0 4 5 4 10 0 6 -5 10 -11 10 -5 0 -7
-4 -4 -10z"/>
<path d="M845 320 c-3 -5 -1 -10 4 -10 6 0 11 5 11 10 0 6 -2 10 -4 10 -3 0
-8 -4 -11 -10z"/>
<path d="M1055 320 c3 -5 8 -10 11 -10 2 0 4 5 4 10 0 6 -5 10 -11 10 -5 0 -7
-4 -4 -10z"/>
<path d="M930 290 c0 -5 5 -10 11 -10 5 0 7 5 4 10 -3 6 -8 10 -11 10 -2 0 -4
-4 -4 -10z"/>
</g>
</svg>
